<?xml version="1.0" encoding="UTF-8"?>
<svg id="Layer_1" xmlns="http://www.w3.org/2000/svg" width="800" height="480.6" version="1.1" viewBox="0 0 800 480.6">
  <!-- Generator: Adobe Illustrator 29.5.1, SVG Export Plug-In . SVG Version: 2.1.0 Build 141)  -->
  <defs>
    <style>
      .st0 {
        fill: #1c1c1c;
      }
    </style>
  </defs>
  <path class="st0" d="M66.5,375.6c-6.7-3-14.8-4.5-24.3-4.5H0v108.2h15.5v-32.8h26.7c9.5,0,17.6-1.5,24.3-4.6,6.7-3,11.8-7.4,15.5-13,3.6-5.6,5.4-12.3,5.4-20.2s-1.8-14.6-5.4-20.2c-3.6-5.7-8.8-10-15.5-13ZM64.2,426.7c-5.1,4.2-12.6,6.3-22.5,6.3H15.5v-48.5h26.3c9.9,0,17.4,2.1,22.5,6.3,5.1,4.2,7.6,10.2,7.6,17.9s-2.5,13.7-7.6,17.9Z"/>
  <path class="st0" d="M152.7,371.1l-49,108.2h15.9l11.9-27h57.5l11.9,27h16.2l-49.1-108.2h-15.3ZM136.9,439.9l23.3-53.1,23.3,53.1h-46.7Z"/>
  <path class="st0" d="M315.1,441.9c6.7-3,11.8-7.3,15.5-12.9,3.6-5.6,5.4-12.3,5.4-20.2,0-11.8-4-21.1-12.1-27.7-8-6.6-19.1-10-33.1-10h-42.2v108.2h15.5v-32.9h26.7c2.4,0,4.7,0,6.9-.3l23.3,33.2h16.8l-25.7-36.2c1-.4,2-.8,3-1.2ZM290.4,433.2h-26.3v-48.7h26.3c9.9,0,17.4,2.1,22.5,6.3,5.1,4.2,7.6,10.2,7.6,17.9s-2.5,13.7-7.6,18c-5.1,4.3-12.6,6.4-22.5,6.4Z"/>
  <polygon class="st0" points="468.3 371.1 450.6 371.1 391.9 431.6 391.9 371.1 376.5 371.1 376.5 479.3 391.9 479.3 391.9 451.3 411.8 431.2 453.1 479.3 471.2 479.3 422.1 419.8 468.3 371.1"/>
  <rect class="st0" x="503" y="371.1" width="15.5" height="108.2"/>
  <polygon class="st0" points="644 451.7 579.1 371.1 566.4 371.1 566.4 479.3 581.8 479.3 581.8 398.7 646.7 479.3 659.4 479.3 659.4 371.1 644 371.1 644 451.7"/>
  <path class="st0" d="M726.1,395.4c3.9-3.7,8.4-6.6,13.8-8.7,5.3-2.1,11-3.1,17.2-3.1s11.7,1,16.9,3c5.2,2,10,5.2,14.5,9.5l9.6-9.6c-4.9-5.6-11-9.7-18.1-12.5-7.1-2.8-14.9-4.2-23.5-4.2s-16.2,1.4-23.2,4.1c-7,2.7-13.1,6.6-18.3,11.6-5.2,5-9.2,10.8-12.1,17.5-2.9,6.7-4.3,14.1-4.3,22.1s1.4,15.4,4.3,22.1c2.9,6.7,6.9,12.5,12.1,17.5,5.2,5,11.2,8.9,18.2,11.6,7,2.7,14.7,4.1,23,4.1s15-1.2,22.2-3.5c7.2-2.3,13.4-5.7,18.8-10.3v-42.2h-14.8v35.2c-2.8,1.8-5.7,3.3-8.7,4.3-5.3,1.8-10.8,2.7-16.6,2.7s-11.9-1-17.2-3.1c-5.3-2.1-9.8-5-13.7-8.7-3.9-3.8-6.9-8.2-9-13.3-2.1-5.1-3.2-10.6-3.2-16.5s1.1-11.5,3.2-16.6c2.1-5.1,5.1-9.5,9-13.2Z"/>
  <rect class="st0" x="709" y="218.2" width="91" height="91"/>
  <polygon class="st0" points="218.8 153.4 325.8 .7 226.3 .7 167.5 87.2 107.6 .7 4.3 .7 113.8 152.8 0 309.8 103.2 309.8 166.3 219.5 231.2 309.8 334.4 309.8 218.8 153.4"/>
  <path class="st0" d="M569.4,310.4h84.7V1.3h-84.7v30.3c-85-68.1-243.3-25.4-242.3,124.3.9,150.5,158.5,188.6,242.3,119.9v34.6ZM409.9,155.2c-2.9-107.4,165.5-108.5,162,0,3.4,109.1-164.7,108-162,0Z"/>
</svg>